<svg width="1200" height="720" viewBox="0 0 1200 720" fill="none" xmlns="http://www.w3.org/2000/svg">
  <rect width="1200" height="720" fill="#F7F5EF"/>
  <rect x="44" y="44" width="1112" height="632" rx="28" fill="#FFFCF6" stroke="#D6D0C2" stroke-width="4"/>
  <rect x="100" y="108" width="1000" height="40" rx="10" fill="#ECE8DE"/>
  <rect x="100" y="180" width="642" height="188" rx="20" fill="#20242F"/>
  <rect x="778" y="180" width="322" height="188" rx="20" fill="#E9EDF2"/>
  <rect x="100" y="408" width="456" height="176" rx="20" fill="#EEF2F6"/>
  <rect x="590" y="408" width="510" height="176" rx="20" fill="#DBE8FF"/>
  <rect x="128" y="216" width="380" height="20" rx="10" fill="#FFFFFF" fill-opacity="0.92"/>
  <rect x="128" y="254" width="520" height="14" rx="7" fill="#7F8A99"/>
  <rect x="128" y="286" width="464" height="14" rx="7" fill="#7F8A99"/>
  <rect x="128" y="318" width="404" height="14" rx="7" fill="#7F8A99"/>
  <rect x="806" y="212" width="118" height="118" rx="18" fill="#0B57D0"/>
  <rect x="952" y="212" width="118" height="118" rx="18" fill="#CBD4E1"/>
  <rect x="624" y="442" width="290" height="22" rx="11" fill="#20242F"/>
  <rect x="624" y="482" width="414" height="14" rx="7" fill="#5F6A77"/>
  <rect x="624" y="514" width="362" height="14" rx="7" fill="#5F6A77"/>
  <rect x="624" y="546" width="244" height="14" rx="7" fill="#5F6A77"/>
  <rect x="128" y="444" width="120" height="96" rx="18" fill="#CCD6E4"/>
  <rect x="272" y="444" width="256" height="18" rx="9" fill="#20242F"/>
  <rect x="272" y="478" width="210" height="12" rx="6" fill="#7F8A99"/>
  <rect x="272" y="506" width="186" height="12" rx="6" fill="#7F8A99"/>
  <text x="128" y="620" fill="#20242F" font-family="IBM Plex Mono, monospace" font-size="22" font-weight="600" letter-spacing="2">
    Replace with your lead image
  </text>
</svg>
